<svg width="39" height="10" viewBox="0 0 39 10" fill="none" xmlns="http://www.w3.org/2000/svg">
<path d="M3.766 10C3.21533 10 2.72067 9.86933 2.282 9.608C1.85267 9.33733 1.512 8.95 1.26 8.446C1.01733 7.942 0.896 7.33533 0.896 6.626C0.896 5.57133 1.18533 4.75 1.764 4.162C2.34267 3.574 3.11733 3.28 4.088 3.28C4.80667 3.28 5.39 3.42467 5.838 3.714C6.286 4.00333 6.51 4.37667 6.51 4.834V10H5.11V4.834C5.09133 4.694 4.998 4.58667 4.83 4.512C4.662 4.428 4.41467 4.386 4.088 4.386C3.5 4.386 3.052 4.57267 2.744 4.946C2.44533 5.31 2.296 5.87 2.296 6.626C2.296 7.354 2.45 7.914 2.758 8.306C3.07533 8.698 3.528 8.894 4.116 8.894H7.238V10H3.766ZM7.238 10V8.894C7.35 8.894 7.42467 8.94067 7.462 9.034C7.49933 9.12733 7.518 9.26267 7.518 9.44C7.518 9.608 7.49933 9.74333 7.462 9.846C7.42467 9.94867 7.35 10 7.238 10ZM4.816 2.356C4.592 2.356 4.396 2.27667 4.228 2.118C4.06933 1.95 3.99 1.754 3.99 1.53C3.99 1.29667 4.06933 1.10067 4.228 0.942C4.396 0.774 4.592 0.69 4.816 0.69C5.04933 0.69 5.24533 0.774 5.404 0.942C5.56267 1.10067 5.642 1.29667 5.642 1.53C5.642 1.754 5.56267 1.95 5.404 2.118C5.24533 2.27667 5.04933 2.356 4.816 2.356ZM2.716 2.356C2.492 2.356 2.296 2.27667 2.128 2.118C1.96933 1.95 1.89 1.754 1.89 1.53C1.89 1.29667 1.96933 1.10067 2.128 0.942C2.296 0.774 2.492 0.69 2.716 0.69C2.94933 0.69 3.14533 0.774 3.304 0.942C3.46267 1.10067 3.542 1.29667 3.542 1.53C3.542 1.754 3.46267 1.95 3.304 2.118C3.14533 2.27667 2.94933 2.356 2.716 2.356ZM11.4044 10C10.9098 10 10.4664 9.888 10.0744 9.664C9.69176 9.43067 9.38842 9.11333 9.16442 8.712C8.94976 8.31067 8.84242 7.858 8.84242 7.354H10.2424C10.2424 7.59667 10.2844 7.83467 10.3684 8.068C10.4524 8.30133 10.5784 8.49733 10.7464 8.656C10.9238 8.81467 11.1431 8.894 11.4044 8.894H11.9644V10H11.4044ZM7.23242 10V8.894H7.68042C7.95109 8.894 8.17042 8.81467 8.33842 8.656C8.50642 8.49733 8.63242 8.30133 8.71642 8.068C8.80042 7.83467 8.84242 7.59667 8.84242 7.354V2.832C8.84242 2.524 8.80042 2.26733 8.71642 2.062C8.64176 1.84733 8.54376 1.67467 8.42242 1.544C8.31042 1.41333 8.20309 1.32 8.10042 1.264C8.12842 1.208 8.18442 1.14267 8.26842 1.068C8.35242 0.984 8.45976 0.914 8.59042 0.857999C8.73042 0.792666 8.88909 0.76 9.06642 0.76C9.27176 0.76 9.46309 0.811333 9.64042 0.913999C9.81776 1.01667 9.96242 1.18467 10.0744 1.418C10.1864 1.65133 10.2424 1.95933 10.2424 2.342V7.354C10.2424 7.858 10.1304 8.31067 9.90642 8.712C9.69176 9.11333 9.39309 9.43067 9.01042 9.664C8.62776 9.888 8.18442 10 7.68042 10H7.23242ZM7.23242 10C7.12976 10 7.05976 9.94867 7.02242 9.846C6.97576 9.74333 6.95242 9.608 6.95242 9.44C6.95242 9.26267 6.97576 9.12733 7.02242 9.034C7.05976 8.94067 7.12976 8.894 7.23242 8.894V10ZM11.9644 10V8.894C12.0764 8.894 12.1511 8.94067 12.1884 9.034C12.2258 9.12733 12.2444 9.26267 12.2444 9.44C12.2444 9.608 12.2258 9.74333 12.1884 9.846C12.1511 9.94867 12.0764 10 11.9644 10ZM23.0369 10C22.5422 10 22.0989 9.888 21.7069 9.664C21.3242 9.43067 21.0209 9.11333 20.7969 8.712C20.5822 8.31067 20.4749 7.858 20.4749 7.354L21.8749 7.004V7.354C21.8749 7.59667 21.9169 7.83467 22.0009 8.068C22.0849 8.30133 22.2109 8.49733 22.3789 8.656C22.5562 8.81467 22.7756 8.894 23.0369 8.894H23.5969V10H23.0369ZM11.9629 10V8.894H19.2849C19.6489 8.894 19.9382 8.74933 20.1529 8.46C20.3676 8.16133 20.4749 7.68067 20.4749 7.018C20.4749 6.08467 20.2602 5.41267 19.8309 5.002C19.4109 4.59133 18.8322 4.386 18.0949 4.386C17.5162 4.386 17.0262 4.49333 16.6249 4.708C16.2329 4.92267 15.9062 5.198 15.6449 5.534C15.3836 5.86067 15.1736 6.21533 15.0149 6.598C14.8562 6.98067 14.7256 7.34933 14.6229 7.704L13.9649 7.494C14.0582 7.13 14.1656 6.752 14.2869 6.36C14.4082 5.95867 14.5576 5.58067 14.7349 5.226C14.9216 4.862 15.1549 4.53533 15.4349 4.246C15.7242 3.94733 16.0836 3.714 16.5129 3.546C16.9422 3.36867 17.4649 3.28 18.0809 3.28C19.2756 3.28 20.2042 3.60667 20.8669 4.26C21.5389 4.91333 21.8749 5.828 21.8749 7.004C21.8749 7.94667 21.6462 8.684 21.1889 9.216C20.7409 9.73867 20.1062 10 19.2849 10H11.9629ZM13.2089 10V5.618C13.2089 5.34733 13.1342 5.10467 12.9849 4.89C12.8356 4.666 12.6862 4.50733 12.5369 4.414C12.6022 4.32067 12.7142 4.22733 12.8729 4.134C13.0409 4.04067 13.2369 3.994 13.4609 3.994C13.6196 3.994 13.7689 4.02667 13.9089 4.092C14.0489 4.148 14.1702 4.23667 14.2729 4.358C14.3849 4.47933 14.4689 4.638 14.5249 4.834C14.5902 5.02067 14.6229 5.24467 14.6229 5.506V10H13.2089ZM11.9629 10C11.8602 10 11.7902 9.94867 11.7529 9.846C11.7062 9.74333 11.6829 9.608 11.6829 9.44C11.6829 9.26267 11.7062 9.12733 11.7529 9.034C11.7902 8.94067 11.8602 8.894 11.9629 8.894V10ZM23.5969 10V8.894C23.7089 8.894 23.7836 8.94067 23.8209 9.034C23.8582 9.12733 23.8769 9.26267 23.8769 9.44C23.8769 9.608 23.8582 9.74333 23.8209 9.846C23.7836 9.94867 23.7089 10 23.5969 10ZM17.5349 2.356C17.2829 2.356 17.0729 2.272 16.9049 2.104C16.7369 1.936 16.6529 1.73533 16.6529 1.502C16.6529 1.26867 16.7369 1.068 16.9049 0.899999C17.0729 0.722666 17.2829 0.634 17.5349 0.634C17.7589 0.634 17.9549 0.722666 18.1229 0.899999C18.3002 1.068 18.3889 1.26867 18.3889 1.502C18.3889 1.73533 18.3002 1.936 18.1229 2.104C17.9549 2.272 17.7589 2.356 17.5349 2.356ZM31.4097 10C30.915 10 30.4717 9.888 30.0797 9.664C29.697 9.43067 29.3937 9.11333 29.1697 8.712C28.955 8.31067 28.8477 7.858 28.8477 7.354H30.2477C30.2477 7.59667 30.2897 7.83467 30.3737 8.068C30.4577 8.30133 30.5837 8.49733 30.7517 8.656C30.929 8.81467 31.1483 8.894 31.4097 8.894H31.9697V10H31.4097ZM23.5977 10V8.894H27.5177C27.9283 8.894 28.2503 8.75867 28.4837 8.488C28.7263 8.208 28.8477 7.83467 28.8477 7.368V4.834C28.829 4.694 28.7357 4.58667 28.5677 4.512C28.3997 4.428 28.1477 4.386 27.8117 4.386C27.233 4.386 26.7897 4.57267 26.4817 4.946C26.183 5.31 26.0337 5.87 26.0337 6.626C26.0337 7.354 26.1877 7.90933 26.4957 8.292C26.813 8.67467 27.2657 8.87533 27.8537 8.894L27.4897 9.986C26.967 9.93 26.4863 9.776 26.0477 9.524C25.6183 9.26267 25.273 8.894 25.0117 8.418C24.7503 7.93267 24.6197 7.33533 24.6197 6.626C24.6197 5.57133 24.909 4.75 25.4877 4.162C26.0663 3.574 26.841 3.28 27.8117 3.28C28.5303 3.28 29.1137 3.42933 29.5617 3.728C30.019 4.01733 30.2477 4.386 30.2477 4.834V7.368C30.2477 7.872 30.131 8.32467 29.8977 8.726C29.6643 9.118 29.3423 9.43067 28.9317 9.664C28.5303 9.888 28.059 10 27.5177 10H23.5977ZM23.5977 10C23.495 10 23.425 9.94867 23.3877 9.846C23.341 9.74333 23.3177 9.608 23.3177 9.44C23.3177 9.26267 23.341 9.12733 23.3877 9.034C23.425 8.94067 23.495 8.894 23.5977 8.894V10ZM31.9697 10V8.894C32.0817 8.894 32.1563 8.94067 32.1937 9.034C32.231 9.12733 32.2497 9.26267 32.2497 9.44C32.2497 9.608 32.231 9.74333 32.1937 9.846C32.1563 9.94867 32.0817 10 31.9697 10ZM27.8677 2.37C27.6157 2.37 27.4057 2.286 27.2377 2.118C27.0697 1.95 26.9857 1.74933 26.9857 1.516C26.9857 1.28267 27.0697 1.082 27.2377 0.913999C27.4057 0.736666 27.6157 0.647999 27.8677 0.647999C28.0917 0.647999 28.2877 0.736666 28.4557 0.913999C28.633 1.082 28.7217 1.28267 28.7217 1.516C28.7217 1.74933 28.633 1.95 28.4557 2.118C28.2877 2.286 28.0917 2.37 27.8677 2.37ZM31.9648 10V8.894H35.0868C35.6748 8.894 36.1228 8.698 36.4308 8.306C36.7482 7.914 36.9068 7.354 36.9068 6.626C36.9068 5.87 36.7528 5.31 36.4448 4.946C36.1462 4.57267 35.7028 4.386 35.1148 4.386C34.7882 4.386 34.5408 4.428 34.3728 4.512C34.2048 4.58667 34.1115 4.694 34.0928 4.834V10H32.6928V4.834C32.6928 4.37667 32.9168 4.00333 33.3648 3.714C33.8222 3.42467 34.4055 3.28 35.1148 3.28C36.0948 3.28 36.8742 3.574 37.4528 4.162C38.0315 4.75 38.3208 5.57133 38.3208 6.626C38.3208 7.33533 38.1948 7.942 37.9428 8.446C37.7002 8.95 37.3595 9.33733 36.9208 9.608C36.4915 9.86933 36.0015 10 35.4508 10H31.9648ZM31.9648 10C31.8622 10 31.7922 9.94867 31.7548 9.846C31.7082 9.74333 31.6848 9.608 31.6848 9.44C31.6848 9.26267 31.7082 9.12733 31.7548 9.034C31.7922 8.94067 31.8622 8.894 31.9648 8.894V10Z" fill="#8B8D97"/>
</svg>
